<!DOCTYPE svg PUBLIC "-//W3C//DTD SVG 20010904//EN" "http://www.w3.org/TR/2001/REC-SVG-20010904/DTD/svg10.dtd">
<svg version="1.0" xmlns="http://www.w3.org/2000/svg" width="1024px" height="1024px" viewBox="0 0 10240 10240" preserveAspectRatio="xMidYMid meet">
<g id="layer101" fill="#000000" stroke="none">
 <path d="M2040 8245 l0 -975 -765 0 -765 0 0 -105 0 -105 765 0 765 0 0 -1940 0 -1940 -765 0 -765 0 0 -110 0 -110 765 0 765 0 0 -970 0 -970 3080 0 3080 0 0 970 0 970 765 0 765 0 0 110 0 110 -765 0 -765 0 0 1940 0 1940 765 0 765 0 0 105 0 105 -765 0 -765 0 0 975 0 975 -3080 0 -3080 0 0 -975z m5840 -3125 l0 -3780 -2760 0 -2760 0 0 2643 0 2643 621 269 c402 175 616 273 607 278 -7 5 -285 127 -618 271 l-605 263 -3 596 -2 597 2760 0 2760 0 0 -3780z m-5171 2202 c187 -82 343 -151 345 -153 3 -2 -55 -30 -127 -61 -73 -31 -230 -100 -349 -152 l-218 -94 0 304 c0 167 2 304 3 304 2 0 158 -67 346 -148z"/>
 <path d="M7126 7796 l-76 -84 -98 -4 c-86 -3 -106 -7 -173 -39 -129 -62 -215 -171 -254 -324 -9 -36 -15 -104 -15 -175 0 -71 6 -139 15 -175 39 -153 125 -262 254 -324 l76 -36 140 0 c137 0 142 1 208 32 131 62 231 192 262 340 31 144 13 334 -40 448 -33 69 -119 164 -179 195 l-44 24 87 93 c47 52 88 98 89 103 2 6 -33 10 -86 10 l-90 0 -76 -84z m10 -239 c121 -62 184 -194 184 -387 0 -197 -62 -323 -193 -392 -34 -18 -59 -22 -132 -23 -81 0 -95 3 -143 29 -87 49 -145 131 -172 245 -15 65 -16 218 -1 284 30 131 116 234 222 266 60 18 178 7 235 -22z"/>
 <path d="M6530 6350 l0 -110 490 0 490 0 0 110 0 110 -490 0 -490 0 0 -110z"/>
 <path d="M7136 3696 l-76 -84 -98 -4 c-86 -3 -106 -7 -173 -39 -129 -62 -215 -171 -254 -324 -9 -36 -15 -104 -15 -175 0 -71 6 -139 15 -175 39 -153 125 -262 254 -324 l76 -36 140 0 c137 0 142 1 208 32 131 62 231 192 262 340 31 144 13 334 -40 448 -33 69 -119 164 -179 195 l-44 24 87 93 c47 52 88 98 89 103 2 6 -33 10 -86 10 l-90 0 -76 -84z m10 -239 c121 -62 184 -194 184 -387 0 -197 -62 -323 -193 -392 -34 -18 -59 -22 -132 -23 -81 0 -95 3 -143 29 -87 49 -145 131 -172 245 -15 65 -16 218 -1 284 30 131 116 234 222 266 60 18 178 7 235 -22z"/>
 <path d="M2720 3050 l0 -522 248 4 c235 4 251 6 327 31 97 32 163 77 215 145 61 82 82 155 87 308 7 191 -22 303 -104 395 -59 64 -102 92 -200 126 -75 26 -87 27 -325 31 l-248 4 0 -522z m505 371 c151 -54 215 -165 215 -377 0 -131 -24 -213 -80 -277 -74 -84 -181 -117 -382 -117 l-108 0 0 401 0 402 148 -5 c115 -4 160 -10 207 -27z"/>
 </g>

</svg>