<!DOCTYPE svg PUBLIC "-//W3C//DTD SVG 20010904//EN" "http://www.w3.org/TR/2001/REC-SVG-20010904/DTD/svg10.dtd">
<svg version="1.0" xmlns="http://www.w3.org/2000/svg" width="1024px" height="1024px" viewBox="0 0 10240 10240" preserveAspectRatio="xMidYMid meet">
<g id="layer101" fill="#000000" stroke="none">
 <path d="M2040 8250 l0 -970 -765 0 -765 0 0 -110 0 -110 765 0 765 0 0 -915 0 -915 -765 0 -765 0 0 -110 0 -110 765 0 765 0 0 -915 0 -915 -765 0 -765 0 0 -110 0 -110 765 0 765 0 0 -970 0 -970 3080 0 3080 0 0 970 0 970 765 0 765 0 0 110 0 110 -765 0 -765 0 0 1940 0 1940 765 0 765 0 0 110 0 110 -765 0 -765 0 0 970 0 970 -3080 0 -3080 0 0 -970z m5840 -3130 l0 -3780 -2760 0 -2760 0 0 1619 0 1618 263 115 c144 63 423 184 619 269 197 85 357 156 357 159 0 3 -160 74 -357 159 -196 85 -475 206 -619 269 l-263 115 0 1618 0 1619 2760 0 2760 0 0 -3780z m-5157 147 c180 -78 327 -144 327 -147 0 -4 -615 -275 -672 -296 -17 -6 -18 12 -18 296 0 284 1 302 18 296 9 -4 164 -71 345 -149z"/>
 <path d="M7126 7796 l-76 -84 -98 -4 c-86 -3 -106 -7 -173 -39 -129 -62 -215 -171 -254 -324 -9 -36 -15 -104 -15 -175 0 -71 6 -139 15 -175 39 -153 125 -262 254 -324 l76 -36 140 0 c137 0 142 1 208 32 138 66 240 205 267 364 15 89 8 274 -13 340 -39 120 -124 234 -211 280 l-44 23 87 93 c47 52 88 98 89 103 2 6 -33 10 -86 10 l-90 0 -76 -84z m10 -239 c121 -62 184 -194 184 -387 0 -197 -62 -323 -193 -392 -34 -18 -59 -22 -132 -23 -81 0 -95 3 -143 29 -87 49 -145 131 -172 245 -15 65 -16 218 -1 284 30 131 116 234 222 266 60 18 178 7 235 -22z"/>
 <path d="M2860 7165 l0 -525 75 0 75 0 2 214 3 214 227 -214 228 -214 96 0 c52 0 94 4 92 8 -1 5 -119 116 -260 248 l-257 239 277 278 277 277 -100 0 -100 0 -242 -242 -243 -243 0 243 0 242 -75 0 -75 0 0 -525z"/>
 <path d="M6530 6350 l0 -110 490 0 490 0 0 110 0 110 -490 0 -490 0 0 -110z"/>
 <path d="M2970 3803 l0 -60 56 -7 c79 -9 112 -29 137 -84 22 -46 22 -58 25 -584 l3 -538 75 0 74 0 0 503 c0 518 -6 607 -41 686 -43 98 -102 133 -236 139 l-93 4 0 -59z"/>
 <path d="M7136 3696 l-76 -84 -98 -4 c-86 -3 -106 -7 -173 -39 -129 -62 -215 -171 -254 -324 -9 -36 -15 -104 -15 -175 0 -71 6 -139 15 -175 39 -153 125 -262 254 -324 l76 -36 140 0 c137 0 142 1 208 32 138 66 240 205 267 364 15 89 8 274 -13 340 -39 120 -124 234 -211 280 l-44 23 87 93 c47 52 88 98 89 103 2 6 -33 10 -86 10 l-90 0 -76 -84z m10 -239 c121 -62 184 -194 184 -387 0 -197 -62 -323 -193 -392 -34 -18 -59 -22 -132 -23 -81 0 -95 3 -143 29 -87 49 -145 131 -172 245 -15 65 -16 218 -1 284 30 131 116 234 222 266 60 18 178 7 235 -22z"/>
 </g>

</svg>