<!DOCTYPE svg PUBLIC "-//W3C//DTD SVG 20010904//EN" "http://www.w3.org/TR/2001/REC-SVG-20010904/DTD/svg10.dtd">
<svg version="1.0" xmlns="http://www.w3.org/2000/svg" width="947px" height="253px" viewBox="0 0 9470 2530" preserveAspectRatio="xMidYMid meet">
<g id="layer101" fill="#000000" stroke="none">
 <path d="M0 1265 l0 -1265 4735 0 4735 0 0 1265 0 1265 -4735 0 -4735 0 0 -1265z"/>
 </g>
<g id="layer102" fill="#c00000" stroke="none">
 <path d="M0 1265 l0 -1265 4735 0 4735 0 0 1265 0 1265 -4735 0 -4735 0 0 -1265z m3962 1155 c4 10 16 21 27 25 22 7 61 -10 61 -25 0 -13 -17 -13 -25 0 -10 16 -34 11 -45 -9 -15 -28 13 -55 42 -40 23 12 37 4 21 -12 -17 -17 -65 -14 -79 6 -12 16 -19 14 -109 -19 -52 -20 -98 -36 -100 -36 -10 0 -5 69 5 75 6 4 10 -5 10 -20 0 -29 -1 -30 99 8 l55 20 -75 27 -74 28 -3 -24 c-5 -35 -22 -19 -22 20 l0 34 103 -38 c94 -35 103 -36 109 -20z m2470 -9 c59 -36 118 -116 118 -160 0 -18 4 -22 18 -16 9 4 24 9 32 12 18 5 58 -22 47 -33 -4 -4 -13 -2 -19 4 -18 18 -36 15 -48 -7 -15 -28 13 -55 42 -40 22 12 37 4 21 -12 -12 -12 -41 -15 -69 -5 -18 6 -22 2 -27 -28 -8 -47 -53 -112 -101 -145 -54 -36 -133 -51 -278 -51 l-118 0 0 24 c0 14 5 28 10 31 6 3 10 -3 10 -14 0 -20 6 -21 113 -21 190 0 267 31 324 128 23 39 27 58 27 117 0 61 -4 77 -29 118 -17 28 -51 61 -80 80 -49 32 -50 32 -202 36 -138 3 -153 1 -153 -14 0 -9 -4 -13 -10 -10 -5 3 -10 15 -10 27 0 20 4 20 163 17 l163 -4 56 -34z m-362 -217 c0 -127 -3 -193 -10 -189 -6 4 -10 78 -10 189 0 161 3 196 17 196 2 0 3 -88 3 -196z m-3438 17 c59 -36 118 -116 118 -160 0 -18 4 -22 18 -16 9 4 24 9 32 12 18 5 58 -22 47 -33 -4 -4 -13 -2 -19 4 -18 18 -36 15 -48 -7 -15 -28 13 -55 42 -40 22 12 37 4 21 -12 -12 -12 -41 -15 -69 -5 -18 6 -22 2 -27 -28 -8 -47 -53 -112 -101 -145 -54 -36 -133 -51 -278 -51 l-118 0 0 24 c0 14 5 28 10 31 6 3 10 -3 10 -14 0 -20 6 -21 113 -21 190 0 267 31 324 128 23 39 27 58 27 117 0 61 -4 77 -29 118 -17 28 -51 61 -80 80 -49 32 -50 32 -202 36 -138 3 -153 1 -153 -14 0 -9 -4 -13 -10 -10 -5 3 -10 15 -10 27 0 20 4 20 163 17 l163 -4 56 -34z m5400 0 c59 -36 118 -116 118 -160 0 -18 4 -22 18 -16 9 4 24 9 32 12 18 5 58 -22 47 -33 -4 -4 -13 -2 -19 4 -18 18 -36 15 -48 -7 -15 -28 13 -55 42 -40 22 12 37 4 21 -12 -12 -12 -41 -15 -69 -5 -18 6 -22 2 -27 -28 -8 -47 -53 -112 -101 -145 -54 -36 -133 -51 -278 -51 l-118 0 0 24 c0 14 5 28 10 31 6 3 10 -3 10 -14 0 -20 6 -21 113 -21 190 0 267 31 324 128 23 39 27 58 27 117 0 61 -4 77 -29 118 -17 28 -51 61 -80 80 -49 32 -50 32 -202 36 -138 3 -153 1 -153 -14 0 -9 -4 -13 -10 -10 -5 3 -10 15 -10 27 0 20 4 20 163 17 l163 -4 56 -34z m-5762 -217 c0 -127 -3 -193 -10 -189 -6 4 -10 78 -10 189 0 161 3 196 17 196 2 0 3 -88 3 -196z m5400 0 c0 -127 -3 -193 -10 -189 -6 4 -10 78 -10 189 0 161 3 196 17 196 2 0 3 -88 3 -196z m-7465 160 c22 -23 4 -40 -23 -23 -26 16 -52 -2 -52 -36 0 -34 26 -52 52 -36 27 17 45 0 23 -23 -40 -39 -105 -3 -105 59 0 62 65 98 105 59z m135 1 c0 -10 -11 -15 -35 -15 l-35 0 0 -60 c0 -47 -3 -60 -15 -60 -12 0 -15 15 -15 75 l0 75 50 0 c38 0 50 -4 50 -15z m50 -9 c0 -13 7 -29 15 -36 12 -10 17 -6 32 24 9 20 23 36 30 36 17 0 17 -2 -9 -55 l-22 -45 24 -25 c22 -23 22 -25 4 -25 -10 0 -31 14 -46 32 l-27 33 -1 -32 c0 -23 -5 -33 -15 -33 -12 0 -15 15 -15 75 0 60 3 75 15 75 9 0 15 -9 15 -24z m3842 -135 c59 -36 118 -116 118 -160 0 -18 4 -22 18 -16 9 4 24 9 32 12 18 5 58 -22 47 -33 -4 -4 -13 -2 -19 4 -18 18 -36 15 -48 -7 -15 -28 13 -55 42 -40 22 12 37 4 21 -12 -12 -12 -41 -15 -69 -5 -18 6 -22 2 -27 -28 -8 -47 -53 -112 -101 -145 -54 -36 -133 -51 -278 -51 l-118 0 0 24 c0 14 5 28 10 31 6 3 10 -3 10 -14 0 -20 6 -21 113 -21 190 0 267 31 324 128 23 39 27 58 27 117 0 61 -4 77 -29 118 -17 28 -51 61 -80 80 -49 32 -50 32 -202 36 -138 3 -153 1 -153 -14 0 -9 -4 -13 -10 -10 -5 3 -10 15 -10 27 0 20 4 20 163 17 l163 -4 56 -34z m-362 -217 c0 -127 -3 -193 -10 -189 -6 4 -10 78 -10 189 0 161 3 196 17 196 2 0 3 -88 3 -196z m5455 157 c3 -5 1 -12 -4 -15 -5 -3 -6 -25 -4 -50 4 -35 1 -48 -16 -65 -46 -46 -121 -13 -121 54 0 48 30 77 75 74 19 -2 37 0 41 4 10 10 22 9 29 -2z m-7663 -131 c4 10 16 21 27 25 22 7 61 -10 61 -25 0 -13 -17 -13 -25 0 -10 16 -34 11 -45 -9 -15 -28 13 -55 42 -40 23 12 37 4 21 -12 -17 -17 -65 -14 -79 6 -12 16 -19 14 -109 -19 -52 -20 -98 -36 -100 -36 -10 0 -5 69 5 75 6 4 10 -5 10 -20 0 -29 -1 -30 99 8 l55 20 -75 27 -74 28 -3 -24 c-5 -35 -22 -19 -22 20 l0 34 103 -38 c94 -35 103 -36 109 -20z m7708 5 c0 -16 -6 -25 -15 -25 -9 0 -15 9 -15 25 0 16 6 25 15 25 9 0 15 -9 15 -25z m-1338 -714 c59 -36 118 -116 118 -160 0 -18 4 -22 18 -16 9 4 24 9 32 12 18 5 58 -22 47 -33 -4 -4 -13 -2 -19 4 -18 18 -36 15 -48 -7 -15 -28 13 -55 42 -40 22 12 37 4 21 -12 -12 -12 -41 -15 -69 -5 -18 6 -22 2 -27 -28 -8 -47 -53 -112 -101 -145 -54 -36 -133 -51 -278 -51 l-118 0 0 24 c0 14 5 28 10 31 6 3 10 -3 10 -14 0 -20 6 -21 113 -21 190 0 267 31 324 128 23 39 27 58 27 117 0 61 -4 77 -29 118 -17 28 -51 61 -80 80 -49 32 -50 32 -202 36 -138 3 -153 1 -153 -14 0 -9 -4 -13 -10 -10 -5 3 -10 15 -10 27 0 20 4 20 163 17 l163 -4 56 -34z m-362 -217 c0 -127 -3 -193 -10 -189 -6 4 -10 78 -10 189 0 161 3 196 17 196 2 0 3 -88 3 -196z m-3438 17 c59 -36 118 -116 118 -160 0 -18 4 -22 18 -16 9 4 24 9 32 12 18 5 58 -22 47 -33 -4 -4 -13 -2 -19 4 -18 18 -36 15 -48 -7 -15 -28 13 -55 42 -40 22 12 37 4 21 -12 -12 -12 -41 -15 -69 -5 -18 6 -22 2 -27 -28 -8 -47 -53 -112 -101 -145 -54 -36 -133 -51 -278 -51 l-118 0 0 24 c0 14 5 28 10 31 6 3 10 -3 10 -14 0 -20 6 -21 113 -21 190 0 267 31 324 128 23 39 27 58 27 117 0 61 -4 77 -29 118 -17 28 -51 61 -80 80 -49 32 -50 32 -202 36 -138 3 -153 1 -153 -14 0 -9 -4 -13 -10 -10 -5 3 -10 15 -10 27 0 20 4 20 163 17 l163 -4 56 -34z m2200 0 c59 -36 118 -116 118 -160 0 -18 4 -22 18 -16 9 4 24 9 32 12 18 5 58 -22 47 -33 -4 -4 -13 -2 -19 4 -18 18 -36 15 -48 -7 -15 -28 13 -55 42 -40 22 12 37 4 21 -12 -12 -12 -41 -15 -69 -5 -18 6 -22 2 -27 -28 -8 -47 -53 -112 -101 -145 -54 -36 -133 -51 -278 -51 l-118 0 0 24 c0 14 5 28 10 31 6 3 10 -3 10 -14 0 -20 6 -21 113 -21 190 0 267 31 324 128 23 39 27 58 27 117 0 61 -4 77 -29 118 -17 28 -51 61 -80 80 -49 32 -50 32 -202 36 -138 3 -153 1 -153 -14 0 -9 -4 -13 -10 -10 -5 3 -10 15 -10 27 0 20 4 20 163 17 l163 -4 56 -34z m-2562 -217 c0 -127 -3 -193 -10 -189 -6 4 -10 78 -10 189 0 161 3 196 17 196 2 0 3 -88 3 -196z m2200 0 c0 -127 -3 -193 -10 -189 -6 4 -10 78 -10 189 0 161 3 196 17 196 2 0 3 -88 3 -196z m3285 177 c3 -5 1 -12 -4 -15 -5 -3 -6 -25 -4 -50 4 -35 1 -48 -16 -65 -46 -46 -121 -13 -121 54 0 48 30 77 75 74 19 -2 37 0 41 4 10 10 22 9 29 -2z m-6723 -160 c59 -36 118 -116 118 -160 0 -18 4 -22 18 -16 9 4 24 9 32 12 18 5 58 -22 47 -33 -4 -4 -13 -2 -19 4 -18 18 -36 15 -48 -7 -15 -28 13 -55 42 -40 22 12 37 4 21 -12 -12 -12 -41 -15 -69 -5 -18 6 -22 2 -27 -28 -8 -47 -53 -112 -101 -145 -54 -36 -133 -51 -278 -51 l-118 0 0 24 c0 14 5 28 10 31 6 3 10 -3 10 -14 0 -20 6 -21 113 -21 190 0 267 31 324 128 23 39 27 58 27 117 0 61 -4 77 -29 118 -17 28 -51 61 -80 80 -49 32 -50 32 -202 36 -138 3 -153 1 -153 -14 0 -9 -4 -13 -10 -10 -5 3 -10 15 -10 27 0 20 4 20 163 17 l163 -4 56 -34z m-362 -217 c0 -127 -3 -193 -10 -189 -6 4 -10 78 -10 189 0 161 3 196 17 196 2 0 3 -88 3 -196z m-1750 -214 c24 -24 26 -77 4 -108 -12 -17 -25 -22 -60 -22 l-44 0 0 75 0 75 40 0 c27 0 47 -7 60 -20z"/>
 <path d="M9220 1906 c-16 -20 -9 -56 13 -70 32 -20 68 21 53 61 -5 12 -9 13 -21 3 -14 -11 -19 -7 -16 13 2 12 -16 8 -29 -7z"/>
 <path d="M9250 826 c-16 -20 -9 -56 13 -70 32 -20 68 21 53 61 -5 12 -9 13 -21 3 -14 -11 -19 -7 -16 13 2 12 -16 8 -29 -7z"/>
 <path d="M450 226 c0 -42 2 -46 25 -46 18 0 26 7 31 24 10 41 1 61 -29 64 -26 3 -27 2 -27 -42z"/>
 </g>
<g id="layer103" fill="#2828ff" stroke="none">
 <path d="M0 1265 l0 -1265 4735 0 4735 0 0 1265 0 1265 -4735 0 -4735 0 0 -1265z m3962 1155 c4 10 16 21 27 25 22 7 61 -10 61 -25 0 -16 1755 -13 1780 2 16 10 24 10 40 0 11 -7 53 -12 100 -12 75 0 80 1 80 21 0 21 3 21 163 18 l163 -4 56 -34 c59 -36 118 -116 118 -160 0 -18 4 -22 18 -16 39 17 51 16 71 -4 21 -21 27 -21 516 -21 l495 0 0 21 c0 21 3 21 163 18 l163 -4 56 -34 c59 -36 118 -116 118 -160 0 -18 4 -22 18 -16 39 17 51 16 71 -4 19 -19 32 -21 146 -21 82 0 132 4 145 12 16 10 24 10 40 0 14 -9 96 -12 310 -12 251 0 290 -2 290 -15 0 -13 -39 -15 -288 -15 -211 0 -291 -3 -300 -12 -8 -8 -12 -67 -12 -200 l0 -188 -600 0 -600 0 0 -135 0 -135 600 0 600 0 2 -197 3 -198 298 -3 c255 -2 297 -4 297 -17 0 -13 -40 -15 -287 -15 -227 -1 -292 -4 -306 -14 -18 -14 -57 -11 -57 5 0 5 -59 9 -131 9 -107 0 -134 -3 -143 -15 -13 -18 -40 -22 -72 -11 -18 6 -22 2 -27 -28 -8 -47 -56 -116 -104 -147 -52 -35 -134 -49 -275 -49 l-118 0 0 25 0 25 -496 0 c-436 0 -498 -2 -508 -15 -13 -18 -40 -22 -72 -11 -18 6 -22 2 -27 -28 -8 -47 -53 -112 -101 -145 -54 -36 -133 -51 -278 -51 l-118 0 0 25 c0 24 -3 25 -55 25 l-55 0 0 100 0 100 -572 0 c-468 -1 -576 -3 -591 -14 -18 -14 -57 -11 -57 5 0 5 -59 9 -131 9 -107 0 -134 -3 -143 -15 -13 -18 -40 -22 -72 -11 -18 6 -22 2 -27 -28 -8 -47 -53 -112 -101 -145 -54 -36 -133 -51 -278 -51 l-118 0 0 25 0 25 -496 0 c-436 0 -498 -2 -508 -15 -13 -18 -40 -22 -72 -11 -18 6 -22 2 -27 -28 -8 -47 -53 -112 -101 -145 -54 -36 -133 -51 -278 -51 l-118 0 0 24 c0 14 5 28 10 31 6 3 10 -3 10 -14 0 -20 6 -21 113 -21 190 0 267 31 324 128 23 39 27 58 27 117 0 61 -4 77 -29 118 -17 28 -51 61 -80 80 -49 32 -50 32 -202 36 -138 3 -153 1 -153 -14 0 -9 -4 -13 -10 -10 -5 3 -10 15 -10 27 0 20 4 20 163 17 l163 -4 56 -34 c59 -36 118 -116 118 -160 0 -18 4 -22 18 -16 39 17 51 16 71 -4 21 -21 27 -21 516 -21 l495 0 0 185 0 185 -155 0 -155 0 0 100 0 100 -50 0 -50 0 0 265 0 265 205 0 205 0 0 185 0 185 -496 0 c-436 0 -498 -2 -508 -15 -13 -18 -40 -22 -72 -11 -18 6 -22 2 -27 -28 -8 -47 -53 -112 -101 -145 -54 -36 -133 -51 -278 -51 l-118 0 0 25 c0 25 -1 25 -90 25 -73 0 -90 3 -90 15 0 12 17 15 90 15 l90 0 0 184 c0 113 4 187 10 191 7 4 10 -70 10 -214 l0 -221 113 0 c190 0 267 31 324 128 23 39 27 58 27 117 0 61 -4 77 -29 118 -17 28 -51 61 -80 80 -49 32 -50 32 -202 36 -138 3 -153 1 -153 -14 0 -9 -4 -13 -10 -10 -5 3 -10 15 -10 27 0 20 4 20 163 17 l163 -4 56 -34 c59 -36 118 -116 118 -160 0 -18 4 -22 18 -16 39 17 51 16 71 -4 21 -21 27 -21 516 -21 l495 0 0 21 c0 21 3 21 163 18 l163 -4 56 -34 c59 -36 118 -116 118 -160 0 -18 4 -22 18 -16 39 17 51 16 71 -4 19 -19 32 -21 146 -21 82 0 132 4 145 12 16 10 24 10 40 0 14 -9 93 -12 295 -12 l275 0 0 100 0 100 250 0 250 0 0 171 c0 134 -3 173 -14 185 -12 12 -145 14 -892 14 -798 0 -878 -1 -889 -16 -15 -22 -65 -21 -81 1 -12 16 -19 14 -109 -19 -52 -20 -98 -36 -100 -36 -10 0 -5 69 5 75 6 4 10 -5 10 -20 0 -29 -1 -30 99 8 l55 20 -75 27 -74 28 -3 -24 c-5 -35 -22 -19 -22 20 l0 34 103 -38 c94 -35 103 -36 109 -20z m-3757 -266 c22 -23 4 -40 -23 -23 -26 16 -52 -2 -52 -36 0 -34 26 -52 52 -36 27 17 45 0 23 -23 -40 -39 -105 -3 -105 59 0 62 65 98 105 59z m135 1 c0 -10 -11 -15 -35 -15 l-35 0 0 -60 c0 -47 -3 -60 -15 -60 -12 0 -15 15 -15 75 l0 75 50 0 c38 0 50 -4 50 -15z m50 -9 c0 -13 7 -29 15 -36 12 -10 17 -6 32 24 9 20 23 36 30 36 17 0 17 -2 -9 -55 l-22 -45 24 -25 c22 -23 22 -25 4 -25 -10 0 -31 14 -46 32 l-27 33 -1 -32 c0 -23 -5 -33 -15 -33 -12 0 -15 15 -15 75 0 60 3 75 15 75 9 0 15 -9 15 -24z m8935 -195 c3 -5 1 -12 -4 -15 -5 -3 -6 -25 -4 -50 4 -35 1 -48 -16 -65 -46 -46 -121 -13 -121 54 0 48 30 77 75 74 19 -2 37 0 41 4 10 10 22 9 29 -2z m-7663 -131 c4 10 16 21 27 25 22 7 61 -10 61 -25 0 -6 59 -10 145 -10 122 0 145 -2 145 -15 0 -13 -22 -15 -141 -15 -119 0 -144 -3 -154 -16 -15 -22 -65 -21 -81 1 -12 16 -19 14 -109 -19 -52 -20 -98 -36 -100 -36 -10 0 -5 69 5 75 6 4 10 -5 10 -20 0 -29 -1 -30 99 8 l55 20 -75 27 -74 28 -3 -24 c-5 -35 -22 -19 -22 20 l0 34 103 -38 c94 -35 103 -36 109 -20z m7708 5 c0 -16 -6 -25 -15 -25 -9 0 -15 9 -15 25 0 16 6 25 15 25 9 0 15 -9 15 -25z m-15 -954 c3 -5 1 -12 -4 -15 -5 -3 -6 -25 -4 -50 4 -35 1 -48 -16 -65 -46 -46 -121 -13 -121 54 0 48 30 77 75 74 19 -2 37 0 41 4 10 10 22 9 29 -2z m-7085 -377 c0 -127 -3 -193 -10 -189 -6 4 -10 78 -10 189 0 161 3 196 17 196 2 0 3 -88 3 -196z m-1750 -214 c24 -24 26 -77 4 -108 -12 -17 -25 -22 -60 -22 l-44 0 0 75 0 75 40 0 c27 0 47 -7 60 -20z"/>
 <path d="M3980 2411 c-14 -27 13 -55 40 -41 19 10 21 25 7 48 -12 18 -35 15 -47 -7z"/>
 <path d="M6070 2191 l0 -241 113 0 c190 0 267 31 324 128 23 39 27 58 27 117 0 63 -3 77 -31 121 -19 28 -52 62 -80 79 -47 29 -51 30 -200 34 l-153 3 0 -241z"/>
 <path d="M5882 2368 c-8 -8 -12 -64 -12 -185 l0 -173 90 0 90 0 0 185 0 185 -78 0 c-47 0 -83 -5 -90 -12z"/>
 <path d="M6580 2211 c-14 -27 13 -55 40 -41 19 10 21 25 7 48 -12 18 -35 15 -47 -7z"/>
 <path d="M7670 1991 l0 -241 113 0 c190 0 267 31 324 128 23 39 27 58 27 117 0 63 -3 77 -31 121 -19 28 -52 62 -80 79 -47 29 -51 30 -200 34 l-153 3 0 -241z"/>
 <path d="M6645 2164 c-11 -17 -39 -21 -71 -10 -18 6 -22 2 -27 -28 -8 -47 -53 -112 -101 -145 -54 -36 -133 -51 -278 -51 l-118 0 0 25 c0 25 -1 25 -90 25 l-90 0 0 -535 0 -535 90 0 c85 0 90 1 90 21 0 21 3 21 163 18 l163 -4 56 -34 c59 -36 118 -116 118 -160 0 -18 4 -22 18 -16 39 17 51 16 71 -4 21 -21 27 -21 516 -21 l495 0 0 185 0 185 -155 0 -155 0 0 100 0 100 -50 0 -50 0 0 265 0 265 205 0 205 0 0 185 0 185 -498 0 c-438 0 -498 -2 -507 -16z"/>
 <path d="M2780 2011 c-14 -27 13 -55 40 -41 19 10 21 25 7 48 -12 18 -35 15 -47 -7z"/>
 <path d="M3870 1791 l0 -241 113 0 c190 0 267 31 324 128 23 39 27 58 27 117 0 63 -3 77 -31 121 -19 28 -52 62 -80 79 -47 29 -51 30 -200 34 l-153 3 0 -241z"/>
 <path d="M8180 2011 c-14 -27 13 -55 40 -41 19 10 21 25 7 48 -12 18 -35 15 -47 -7z"/>
 <path d="M5370 1880 l0 -100 -288 0 c-211 0 -291 -3 -300 -12 -8 -8 -12 -67 -12 -200 l0 -188 -600 0 -600 0 0 -135 0 -135 600 0 600 0 2 -197 3 -198 598 -3 597 -2 0 -100 0 -100 40 0 40 0 0 185 0 185 -105 0 -105 0 0 550 0 550 -235 0 -235 0 0 -100z"/>
 <path d="M8245 1964 c-11 -17 -39 -21 -71 -10 -18 6 -22 2 -27 -28 -8 -47 -53 -112 -101 -145 -54 -36 -133 -51 -278 -51 l-118 0 0 25 0 25 -190 0 -190 0 0 -235 0 -235 35 0 35 0 0 150 0 150 600 0 600 0 0 171 c0 134 -3 173 -14 185 -22 21 -267 20 -281 -2z"/>
 <path d="M4380 1811 c-14 -27 13 -55 40 -41 19 10 21 25 7 48 -12 18 -35 15 -47 -7z"/>
 <path d="M4445 1764 c-11 -17 -39 -21 -71 -10 -18 6 -22 2 -27 -28 -8 -47 -53 -112 -101 -145 -54 -36 -133 -51 -278 -51 l-118 0 0 25 0 25 -190 0 -190 0 0 -235 0 -235 35 0 35 0 0 150 0 150 600 0 600 0 0 171 c0 134 -3 173 -14 185 -22 21 -267 20 -281 -2z"/>
 <path d="M7370 1195 l0 -85 140 0 c136 0 140 1 140 21 0 21 3 21 163 18 l163 -4 56 -34 c59 -36 118 -116 118 -160 0 -18 4 -22 18 -16 39 17 51 16 71 -4 19 -19 32 -21 149 -21 86 0 132 4 140 12 8 8 12 64 12 185 l0 173 -585 0 -585 0 0 -85z"/>
 <path d="M7670 891 l0 -241 113 0 c190 0 267 31 324 128 23 39 27 58 27 117 0 63 -3 77 -31 121 -19 28 -52 62 -80 79 -47 29 -51 30 -200 34 l-153 3 0 -241z"/>
 <path d="M3570 995 l0 -85 140 0 c136 0 140 1 140 21 0 21 3 21 163 18 l163 -4 56 -34 c59 -36 118 -116 118 -160 0 -18 4 -22 18 -16 39 17 51 16 71 -4 19 -19 32 -21 149 -21 86 0 132 4 140 12 8 8 12 64 12 185 l0 173 -585 0 -585 0 0 -85z"/>
 <path d="M3870 691 l0 -241 113 0 c190 0 267 31 324 128 23 39 27 58 27 117 0 63 -3 77 -31 121 -19 28 -52 62 -80 79 -47 29 -51 30 -200 34 l-153 3 0 -241z"/>
 <path d="M6070 691 l0 -241 113 0 c190 0 267 31 324 128 23 39 27 58 27 117 0 63 -3 77 -31 121 -19 28 -52 62 -80 79 -47 29 -51 30 -200 34 l-153 3 0 -241z"/>
 <path d="M8180 911 c-14 -27 13 -55 40 -41 19 10 21 25 7 48 -12 18 -35 15 -47 -7z"/>
 <path d="M4380 711 c-14 -27 13 -55 40 -41 19 10 21 25 7 48 -12 18 -35 15 -47 -7z"/>
 <path d="M6580 711 c-14 -27 13 -55 40 -41 19 10 21 25 7 48 -12 18 -35 15 -47 -7z"/>
 <path d="M2780 511 c-14 -27 13 -55 40 -41 19 10 21 25 7 48 -12 18 -35 15 -47 -7z"/>
 <path d="M9220 1906 c-16 -20 -9 -56 13 -70 32 -20 68 21 53 61 -5 12 -9 13 -21 3 -14 -11 -19 -7 -16 13 2 12 -16 8 -29 -7z"/>
 <path d="M1680 1811 c-14 -27 13 -55 40 -41 19 10 21 25 7 48 -12 18 -35 15 -47 -7z"/>
 <path d="M9250 826 c-16 -20 -9 -56 13 -70 32 -20 68 21 53 61 -5 12 -9 13 -21 3 -14 -11 -19 -7 -16 13 2 12 -16 8 -29 -7z"/>
 <path d="M450 226 c0 -42 2 -46 25 -46 18 0 26 7 31 24 10 41 1 61 -29 64 -26 3 -27 2 -27 -42z"/>
 </g>
<g id="layer104" fill="#ffffff" stroke="none">
 <path d="M0 1265 l0 -1265 4735 0 4735 0 0 1265 0 1265 -4735 0 -4735 0 0 -1265z m3962 1155 c4 10 16 21 27 25 22 7 61 -10 61 -25 0 -16 1755 -13 1780 2 16 10 24 10 40 0 11 -7 53 -12 100 -12 75 0 80 1 80 21 0 21 3 21 163 18 l163 -4 56 -34 c59 -36 118 -116 118 -160 0 -18 4 -22 18 -16 39 17 51 16 71 -4 21 -21 27 -21 516 -21 l495 0 0 21 c0 21 3 21 163 18 l163 -4 56 -34 c59 -36 118 -116 118 -160 0 -18 4 -22 18 -16 39 17 51 16 71 -4 19 -19 32 -21 146 -21 82 0 132 4 145 12 16 10 24 10 40 0 14 -9 96 -12 310 -12 251 0 290 -2 290 -15 0 -13 -39 -15 -288 -15 -211 0 -291 -3 -300 -12 -8 -8 -12 -67 -12 -200 l0 -188 -600 0 -600 0 0 -135 0 -135 600 0 600 0 2 -197 3 -198 298 -3 c255 -2 297 -4 297 -17 0 -13 -40 -15 -287 -15 -227 -1 -292 -4 -306 -14 -18 -14 -57 -11 -57 5 0 5 -59 9 -131 9 -107 0 -134 -3 -143 -15 -13 -18 -40 -22 -72 -11 -18 6 -22 2 -27 -28 -8 -47 -56 -116 -104 -147 -52 -35 -134 -49 -275 -49 l-118 0 0 25 0 25 -496 0 c-436 0 -498 -2 -508 -15 -13 -18 -40 -22 -72 -11 -18 6 -22 2 -27 -28 -8 -47 -53 -112 -101 -145 -54 -36 -133 -51 -278 -51 l-118 0 0 25 c0 24 -3 25 -55 25 l-55 0 0 100 0 100 -572 0 c-468 -1 -576 -3 -591 -14 -18 -14 -57 -11 -57 5 0 5 -59 9 -131 9 -107 0 -134 -3 -143 -15 -13 -18 -40 -22 -72 -11 -18 6 -22 2 -27 -28 -8 -47 -53 -112 -101 -145 -54 -36 -133 -51 -278 -51 l-118 0 0 25 0 25 -496 0 c-436 0 -498 -2 -508 -15 -13 -18 -40 -22 -72 -11 -18 6 -22 2 -27 -28 -8 -47 -53 -112 -101 -145 -54 -36 -133 -51 -278 -51 l-118 0 0 25 0 25 -477 0 c-388 -1 -481 -3 -496 -14 -18 -14 -57 -11 -57 5 0 5 -129 9 -290 9 -251 0 -290 2 -290 15 0 13 39 15 288 15 211 0 291 3 300 12 9 9 12 189 12 750 l0 738 105 0 105 0 0 34 0 34 103 -38 c94 -35 103 -36 109 -20 4 10 16 21 27 25 22 7 61 -10 61 -25 0 -6 59 -10 145 -10 l145 0 0 171 c0 134 -3 173 -14 185 -12 12 -119 14 -700 14 -603 0 -686 2 -686 15 0 13 83 15 688 15 522 0 691 3 700 12 8 8 12 45 12 100 l0 88 855 0 855 0 0 34 0 34 103 -38 c94 -35 103 -36 109 -20z m-3757 -266 c22 -23 4 -40 -23 -23 -26 16 -52 -2 -52 -36 0 -34 26 -52 52 -36 27 17 45 0 23 -23 -40 -39 -105 -3 -105 59 0 62 65 98 105 59z m135 1 c0 -10 -11 -15 -35 -15 l-35 0 0 -60 c0 -47 -3 -60 -15 -60 -12 0 -15 15 -15 75 l0 75 50 0 c38 0 50 -4 50 -15z m50 -9 c0 -13 7 -29 15 -36 12 -10 17 -6 32 24 9 20 23 36 30 36 17 0 17 -2 -9 -55 l-22 -45 24 -25 c22 -23 22 -25 4 -25 -10 0 -31 14 -46 32 l-27 33 -1 -32 c0 -23 -5 -33 -15 -33 -12 0 -15 15 -15 75 0 60 3 75 15 75 9 0 15 -9 15 -24z m8935 -195 c3 -5 1 -12 -4 -15 -5 -3 -6 -25 -4 -50 4 -35 1 -48 -16 -65 -46 -46 -121 -13 -121 54 0 48 30 77 75 74 19 -2 37 0 41 4 10 10 22 9 29 -2z m45 -126 c0 -16 -6 -25 -15 -25 -9 0 -15 9 -15 25 0 16 6 25 15 25 9 0 15 -9 15 -25z m-15 -954 c3 -5 1 -12 -4 -15 -5 -3 -6 -25 -4 -50 4 -35 1 -48 -16 -65 -46 -46 -121 -13 -121 54 0 48 30 77 75 74 19 -2 37 0 41 4 10 10 22 9 29 -2z m-8835 -591 c24 -24 26 -77 4 -108 -12 -17 -25 -22 -60 -22 l-44 0 0 75 0 75 40 0 c27 0 47 -7 60 -20z"/>
 <path d="M3770 2394 c0 -63 -8 -61 100 -21 32 12 49 22 40 25 -8 3 -43 16 -77 28 l-63 24 0 -56z"/>
 <path d="M3980 2411 c-14 -27 13 -55 40 -41 19 10 21 25 7 48 -12 18 -35 15 -47 -7z"/>
 <path d="M6070 2191 l0 -241 113 0 c190 0 267 31 324 128 23 39 27 58 27 117 0 63 -3 77 -31 121 -19 28 -52 62 -80 79 -47 29 -51 30 -200 34 l-153 3 0 -241z"/>
 <path d="M2072 2298 l3 -83 88 -3 c83 -3 87 -2 87 19 0 21 2 21 163 18 l163 -4 56 -34 c59 -36 118 -116 118 -160 0 -18 4 -22 18 -16 39 17 51 16 71 -4 21 -21 27 -21 516 -21 l495 0 0 21 c0 21 3 21 163 18 l163 -4 56 -34 c59 -36 118 -116 118 -160 0 -18 4 -22 18 -16 39 17 51 16 71 -4 19 -19 32 -21 146 -21 82 0 132 4 145 12 16 10 24 10 40 0 14 -9 93 -12 295 -12 l275 0 0 100 0 100 250 0 250 0 0 171 c0 134 -3 173 -14 185 -12 12 -145 14 -892 14 -798 0 -878 -1 -889 -16 -15 -22 -65 -21 -81 1 -12 16 -19 14 -109 -19 -52 -20 -98 -36 -100 -36 -3 0 -5 16 -5 35 l0 35 -840 0 -841 0 3 -82z"/>
 <path d="M5882 2368 c-8 -8 -12 -64 -12 -185 l0 -173 90 0 90 0 0 185 0 185 -78 0 c-47 0 -83 -5 -90 -12z"/>
 <path d="M2270 1991 l0 -241 113 0 c190 0 267 31 324 128 23 39 27 58 27 117 0 63 -3 77 -31 121 -19 28 -52 62 -80 79 -47 29 -51 30 -200 34 l-153 3 0 -241z"/>
 <path d="M6580 2211 c-14 -27 13 -55 40 -41 19 10 21 25 7 48 -12 18 -35 15 -47 -7z"/>
 <path d="M7670 1991 l0 -241 113 0 c190 0 267 31 324 128 23 39 27 58 27 117 0 63 -3 77 -31 121 -19 28 -52 62 -80 79 -47 29 -51 30 -200 34 l-153 3 0 -241z"/>
 <path d="M2082 2168 c-8 -8 -12 -64 -12 -185 l0 -173 90 0 90 0 0 185 0 185 -78 0 c-47 0 -83 -5 -90 -12z"/>
 <path d="M6645 2164 c-11 -17 -39 -21 -71 -10 -18 6 -22 2 -27 -28 -8 -47 -53 -112 -101 -145 -54 -36 -133 -51 -278 -51 l-118 0 0 25 c0 25 -1 25 -90 25 l-90 0 0 -535 0 -535 90 0 c85 0 90 1 90 21 0 21 3 21 163 18 l163 -4 56 -34 c59 -36 118 -116 118 -160 0 -18 4 -22 18 -16 39 17 51 16 71 -4 21 -21 27 -21 516 -21 l495 0 0 185 0 185 -155 0 -155 0 0 100 0 100 -50 0 -50 0 0 265 0 265 205 0 205 0 0 185 0 185 -498 0 c-438 0 -498 -2 -507 -16z"/>
 <path d="M2780 2011 c-14 -27 13 -55 40 -41 19 10 21 25 7 48 -12 18 -35 15 -47 -7z"/>
 <path d="M3870 1791 l0 -241 113 0 c190 0 267 31 324 128 23 39 27 58 27 117 0 63 -3 77 -31 121 -19 28 -52 62 -80 79 -47 29 -51 30 -200 34 l-153 3 0 -241z"/>
 <path d="M8180 2011 c-14 -27 13 -55 40 -41 19 10 21 25 7 48 -12 18 -35 15 -47 -7z"/>
 <path d="M2845 1964 c-11 -17 -39 -21 -71 -10 -18 6 -22 2 -27 -28 -8 -47 -53 -112 -101 -145 -54 -36 -133 -51 -278 -51 l-118 0 0 25 c0 25 -1 25 -90 25 l-90 0 0 -535 0 -535 90 0 c85 0 90 1 90 21 0 21 3 21 163 18 l163 -4 56 -34 c59 -36 118 -116 118 -160 0 -18 4 -22 18 -16 39 17 51 16 71 -4 21 -21 27 -21 516 -21 l495 0 0 185 0 185 -155 0 -155 0 0 100 0 100 -50 0 -50 0 0 265 0 265 205 0 205 0 0 185 0 185 -498 0 c-438 0 -498 -2 -507 -16z"/>
 <path d="M5370 1880 l0 -100 -288 0 c-211 0 -291 -3 -300 -12 -8 -8 -12 -67 -12 -200 l0 -188 -600 0 -600 0 0 -135 0 -135 600 0 600 0 2 -197 3 -198 598 -3 597 -2 0 -100 0 -100 40 0 40 0 0 185 0 185 -105 0 -105 0 0 550 0 550 -235 0 -235 0 0 -100z"/>
 <path d="M8245 1964 c-11 -17 -39 -21 -71 -10 -18 6 -22 2 -27 -28 -8 -47 -53 -112 -101 -145 -54 -36 -133 -51 -278 -51 l-118 0 0 25 0 25 -190 0 -190 0 0 -235 0 -235 35 0 35 0 0 150 0 150 600 0 600 0 0 171 c0 134 -3 173 -14 185 -22 21 -267 20 -281 -2z"/>
 <path d="M1470 1794 c0 -63 -8 -61 100 -21 32 12 49 22 40 25 -8 3 -43 16 -77 28 l-63 24 0 -56z"/>
 <path d="M1680 1811 c-14 -27 13 -55 40 -41 19 10 21 25 7 48 -12 18 -35 15 -47 -7z"/>
 <path d="M4380 1811 c-14 -27 13 -55 40 -41 19 10 21 25 7 48 -12 18 -35 15 -47 -7z"/>
 <path d="M1272 1048 l3 -733 488 -3 487 -2 0 185 0 185 -105 0 -105 0 0 550 0 550 -141 0 c-119 0 -144 -3 -154 -16 -15 -22 -65 -21 -81 1 -12 16 -19 14 -109 -19 -52 -20 -98 -36 -100 -36 -3 0 -5 16 -5 35 l0 35 -90 0 -90 0 2 -732z"/>
 <path d="M4445 1764 c-11 -17 -39 -21 -71 -10 -18 6 -22 2 -27 -28 -8 -47 -53 -112 -101 -145 -54 -36 -133 -51 -278 -51 l-118 0 0 25 0 25 -190 0 -190 0 0 -235 0 -235 35 0 35 0 0 150 0 150 600 0 600 0 0 171 c0 134 -3 173 -14 185 -22 21 -267 20 -281 -2z"/>
 <path d="M7370 1195 l0 -85 140 0 c136 0 140 1 140 21 0 21 3 21 163 18 l163 -4 56 -34 c59 -36 118 -116 118 -160 0 -18 4 -22 18 -16 39 17 51 16 71 -4 19 -19 32 -21 149 -21 86 0 132 4 140 12 8 8 12 64 12 185 l0 173 -585 0 -585 0 0 -85z"/>
 <path d="M7670 891 l0 -241 113 0 c190 0 267 31 324 128 23 39 27 58 27 117 0 63 -3 77 -31 121 -19 28 -52 62 -80 79 -47 29 -51 30 -200 34 l-153 3 0 -241z"/>
 <path d="M3570 995 l0 -85 140 0 c136 0 140 1 140 21 0 21 3 21 163 18 l163 -4 56 -34 c59 -36 118 -116 118 -160 0 -18 4 -22 18 -16 39 17 51 16 71 -4 19 -19 32 -21 149 -21 86 0 132 4 140 12 8 8 12 64 12 185 l0 173 -585 0 -585 0 0 -85z"/>
 <path d="M3870 691 l0 -241 113 0 c190 0 267 31 324 128 23 39 27 58 27 117 0 63 -3 77 -31 121 -19 28 -52 62 -80 79 -47 29 -51 30 -200 34 l-153 3 0 -241z"/>
 <path d="M6070 691 l0 -241 113 0 c190 0 267 31 324 128 23 39 27 58 27 117 0 63 -3 77 -31 121 -19 28 -52 62 -80 79 -47 29 -51 30 -200 34 l-153 3 0 -241z"/>
 <path d="M8180 911 c-14 -27 13 -55 40 -41 19 10 21 25 7 48 -12 18 -35 15 -47 -7z"/>
 <path d="M2270 491 l0 -241 113 0 c190 0 267 31 324 128 23 39 27 58 27 117 0 63 -3 77 -31 121 -19 28 -52 62 -80 79 -47 29 -51 30 -200 34 l-153 3 0 -241z"/>
 <path d="M4380 711 c-14 -27 13 -55 40 -41 19 10 21 25 7 48 -12 18 -35 15 -47 -7z"/>
 <path d="M6580 711 c-14 -27 13 -55 40 -41 19 10 21 25 7 48 -12 18 -35 15 -47 -7z"/>
 <path d="M2780 511 c-14 -27 13 -55 40 -41 19 10 21 25 7 48 -12 18 -35 15 -47 -7z"/>
 <path d="M9220 1906 c-16 -20 -9 -56 13 -70 32 -20 68 21 53 61 -5 12 -9 13 -21 3 -14 -11 -19 -7 -16 13 2 12 -16 8 -29 -7z"/>
 <path d="M9250 826 c-16 -20 -9 -56 13 -70 32 -20 68 21 53 61 -5 12 -9 13 -21 3 -14 -11 -19 -7 -16 13 2 12 -16 8 -29 -7z"/>
 <path d="M450 226 c0 -42 2 -46 25 -46 18 0 26 7 31 24 10 41 1 61 -29 64 -26 3 -27 2 -27 -42z"/>
 </g>

</svg>