<!DOCTYPE svg PUBLIC "-//W3C//DTD SVG 20010904//EN" "http://www.w3.org/TR/2001/REC-SVG-20010904/DTD/svg10.dtd">
<svg version="1.0" xmlns="http://www.w3.org/2000/svg" width="1024px" height="1024px" viewBox="0 0 10240 10240" preserveAspectRatio="xMidYMid meet">
<g id="layer101" fill="#000000" stroke="none">
 <path d="M2040 8245 l0 -975 -765 0 -765 0 0 -105 0 -105 765 0 765 0 0 -915 0 -915 -765 0 -765 0 0 -110 0 -110 765 0 765 0 0 -915 0 -915 -765 0 -765 0 0 -110 0 -110 765 0 765 0 0 -970 0 -970 3080 0 3080 0 0 970 0 970 765 0 765 0 0 110 0 110 -765 0 -765 0 0 1940 0 1940 765 0 765 0 0 105 0 105 -765 0 -765 0 0 975 0 975 -3080 0 -3080 0 0 -975z m5840 -3125 l0 -3780 -2760 0 -2760 0 2 1621 3 1622 612 266 c337 146 613 268 613 271 0 3 -186 85 -413 184 -226 98 -502 217 -612 265 l-200 87 -3 1622 -2 1622 2760 0 2760 0 0 -3780z m-5170 150 c178 -77 327 -143 329 -146 2 -2 2 -6 -1 -9 -6 -6 -666 -295 -674 -295 -2 0 -4 135 -4 301 0 237 3 300 13 296 6 -3 158 -69 337 -147z"/>
 <path d="M7126 7796 l-76 -84 -98 -4 c-86 -3 -106 -7 -173 -39 -129 -62 -215 -171 -254 -324 -9 -36 -15 -104 -15 -175 0 -71 6 -139 15 -175 39 -153 125 -262 254 -324 l76 -36 140 0 c137 0 142 1 208 32 131 62 231 192 262 340 31 144 13 334 -40 448 -33 69 -119 164 -179 195 l-44 24 87 93 c47 52 88 98 89 103 2 6 -33 10 -86 10 l-90 0 -76 -84z m10 -239 c121 -62 184 -194 184 -387 0 -197 -62 -323 -193 -392 -34 -18 -59 -22 -132 -23 -81 0 -95 3 -143 29 -87 49 -145 131 -172 245 -15 65 -16 218 -1 284 30 131 116 234 222 266 60 18 178 7 235 -22z"/>
 <path d="M2860 7170 l0 -520 214 0 c235 0 302 11 369 63 52 39 88 116 94 200 10 127 -33 224 -117 267 l-37 19 52 54 c41 42 73 95 149 245 l97 192 -83 0 -83 0 -82 -164 c-87 -174 -127 -230 -180 -253 -18 -7 -80 -16 -138 -20 l-105 -6 0 221 0 222 -75 0 -75 0 0 -520z m435 -66 c50 -25 85 -89 85 -154 0 -65 -35 -129 -85 -154 -32 -17 -63 -22 -162 -25 l-123 -3 0 182 0 182 123 -3 c99 -3 130 -8 162 -25z"/>
 <path d="M6530 6350 l0 -110 490 0 490 0 0 110 0 110 -490 0 -490 0 0 -110z"/>
 <path d="M7136 3696 l-76 -84 -98 -4 c-86 -3 -106 -7 -173 -39 -129 -62 -215 -171 -254 -324 -9 -36 -15 -104 -15 -175 0 -71 6 -139 15 -175 39 -153 125 -262 254 -324 l76 -36 140 0 c137 0 142 1 208 32 131 62 231 192 262 340 31 144 13 334 -40 448 -33 69 -119 164 -179 195 l-44 24 87 93 c47 52 88 98 89 103 2 6 -33 10 -86 10 l-90 0 -76 -84z m10 -239 c121 -62 184 -194 184 -387 0 -197 -62 -323 -193 -392 -34 -18 -59 -22 -132 -23 -81 0 -95 3 -143 29 -87 49 -145 131 -172 245 -15 65 -16 218 -1 284 30 131 116 234 222 266 60 18 178 7 235 -22z"/>
 <path d="M3043 3580 c-23 -5 -73 -18 -112 -30 l-71 -21 0 -80 0 -79 38 19 c20 10 71 31 112 46 65 24 90 28 185 29 95 1 116 -2 151 -21 91 -48 123 -131 86 -216 -28 -62 -79 -90 -222 -120 -199 -43 -277 -84 -323 -170 -31 -60 -32 -204 0 -263 27 -51 91 -109 151 -137 42 -20 63 -22 207 -21 127 1 173 5 225 20 l65 19 3 74 c3 84 15 80 -108 35 -63 -23 -91 -28 -180 -28 -94 -1 -110 2 -149 24 -57 32 -82 67 -88 121 -5 57 20 107 68 131 20 10 96 32 170 49 206 46 276 86 324 183 21 42 26 68 26 129 1 105 -22 169 -78 223 -70 68 -131 87 -298 90 -77 2 -159 -1 -182 -6z"/>
 </g>

</svg>