<!DOCTYPE svg PUBLIC "-//W3C//DTD SVG 20010904//EN" "http://www.w3.org/TR/2001/REC-SVG-20010904/DTD/svg10.dtd">
<svg version="1.0" xmlns="http://www.w3.org/2000/svg" width="1024px" height="1024px" viewBox="0 0 10240 10240" preserveAspectRatio="xMidYMid meet">
<g id="layer101" fill="#000000" stroke="none">
 <path d="M2040 8250 l0 -970 -765 0 -765 0 0 -110 0 -110 765 0 765 0 0 -1940 0 -1940 -765 0 -765 0 0 -110 0 -110 765 0 765 0 0 -970 0 -970 3080 0 3080 0 0 970 0 970 765 0 765 0 0 110 0 110 -765 0 -765 0 0 1940 0 1940 765 0 765 0 0 110 0 110 -765 0 -765 0 0 970 0 970 -3080 0 -3080 0 0 -970z m5840 -3130 l0 -3780 -2760 0 -2760 0 0 2643 0 2643 620 270 c409 177 616 272 608 277 -7 5 -285 127 -618 272 l-605 263 -3 596 -2 596 2760 0 2760 0 0 -3780z m-5163 2199 c180 -78 331 -145 335 -148 3 -3 -151 -74 -343 -157 l-349 -151 0 304 c0 259 2 304 14 300 8 -3 162 -70 343 -148z"/>
 <path d="M7126 7796 l-76 -84 -98 -4 c-86 -3 -106 -7 -173 -39 -129 -62 -215 -171 -254 -324 -9 -36 -15 -104 -15 -175 0 -71 6 -139 15 -175 39 -153 125 -262 254 -324 l76 -36 140 0 c137 0 142 1 208 32 138 66 240 205 267 364 15 89 8 274 -13 340 -39 120 -124 234 -211 280 l-44 23 87 93 c47 52 88 98 89 103 2 6 -33 10 -86 10 l-90 0 -76 -84z m10 -239 c121 -62 184 -194 184 -387 0 -197 -62 -323 -193 -392 -34 -18 -59 -22 -132 -23 -81 0 -95 3 -143 29 -87 49 -145 131 -172 245 -15 65 -16 218 -1 284 30 131 116 234 222 266 60 18 178 7 235 -22z"/>
 <path d="M6530 6350 l0 -110 490 0 490 0 0 110 0 110 -490 0 -490 0 0 -110z"/>
 <path d="M7136 3696 l-76 -84 -98 -4 c-86 -3 -106 -7 -173 -39 -129 -62 -215 -171 -254 -324 -9 -36 -15 -104 -15 -175 0 -71 6 -139 15 -175 39 -153 125 -262 254 -324 l76 -36 140 0 c137 0 142 1 208 32 138 66 240 205 267 364 15 89 8 274 -13 340 -39 120 -124 234 -211 280 l-44 23 87 93 c47 52 88 98 89 103 2 6 -33 10 -86 10 l-90 0 -76 -84z m10 -239 c121 -62 184 -194 184 -387 0 -197 -62 -323 -193 -392 -34 -18 -59 -22 -132 -23 -81 0 -95 3 -143 29 -87 49 -145 131 -172 245 -15 65 -16 218 -1 284 30 131 116 234 222 266 60 18 178 7 235 -22z"/>
 <path d="M3160 3115 l0 -465 -185 0 -185 0 0 -60 0 -60 445 0 445 0 0 60 0 60 -185 0 -185 0 0 465 0 465 -75 0 -75 0 0 -465z"/>
 </g>

</svg>